<?xml version="1.0" encoding="UTF-8"?>
<!-- Generated by Pixelmator Pro 2.4.1 -->
<svg width="3300" height="2200" viewBox="0 0 3300 2200" xmlns="http://www.w3.org/2000/svg" xmlns:xlink="http://www.w3.org/1999/xlink">

    <style>
        .multicolor-0:systemBlueColor { fill:#0a84ff; opacity:1.0 }
        .multicolor-1 { fill:#ffd60a; opacity:1.0 }
    </style>

    <g id="Notes">
        <path id="artboard" fill="#ffffff" stroke="none" d="M 0 0 L 3300 0 L 3300 2200 L 0 2200 Z"/>
        <path id="Trac" fill="none" stroke="#000000" stroke-width="0.5" stroke-linecap="round" stroke-linejoin="round" d="M 263 292 L 3036 292"/>
        <text id="WeightScale-Variations" xml:space="preserve" x="263" y="322" font-family="Helvetica" font-size="12" font-weight="700" fill="#000000">Weight/Scale Variations</text>
        <text id="Ultralight" xml:space="preserve" x="560" y="322" text-anchor="middle" font-family="Helvetica" font-size="12" fill="#000000">Ultralight</text>
        <text id="Thin" xml:space="preserve" x="856" y="322" text-anchor="middle" font-family="Helvetica" font-size="12" fill="#000000">Thin</text>
        <text id="Light" xml:space="preserve" x="1154" y="322" text-anchor="middle" font-family="Helvetica" font-size="12" fill="#000000">Light</text>
        <text id="Regular" xml:space="preserve" x="1450" y="322" text-anchor="middle" font-family="Helvetica" font-size="12" fill="#000000">Regular</text>
        <text id="Medium" xml:space="preserve" x="1747" y="322" text-anchor="middle" font-family="Helvetica" font-size="12" fill="#000000">Medium</text>
        <text id="Semibold" xml:space="preserve" x="2044" y="322" text-anchor="middle" font-family="Helvetica" font-size="12" fill="#000000">Semibold</text>
        <text id="Bold" xml:space="preserve" x="2340" y="322" text-anchor="middle" font-family="Helvetica" font-size="12" fill="#000000">Bold</text>
        <text id="Heavy" xml:space="preserve" x="2637" y="322" text-anchor="middle" font-family="Helvetica" font-size="12" fill="#000000">Heavy</text>
        <text id="Black" xml:space="preserve" x="2933" y="322" text-anchor="middle" font-family="Helvetica" font-size="12" fill="#000000">Black</text>
        <path id="path1" fill="none" stroke="#000000" stroke-width="0.5" stroke-linecap="round" stroke-linejoin="round" d="M 263 1903 L 3036 1903"/>
        <g id="Associer">
            <path id="path2" fill="#000000" stroke="none" d="M 272.248047 1933.830078 C 276.554688 1933.830078 280.138702 1930.255859 280.138702 1925.949219 C 280.138702 1921.642578 276.544891 1918.068359 272.238281 1918.068359 C 267.941406 1918.068359 264.367188 1921.642578 264.367188 1925.949219 C 264.367188 1930.255859 267.951172 1933.830078 272.248047 1933.830078 Z M 272.248047 1932.345703 C 268.703125 1932.345703 265.871094 1929.503906 265.871094 1925.949219 C 265.871094 1922.394531 268.693359 1919.552734 272.238281 1919.552734 C 275.792999 1919.552734 278.634796 1922.394531 278.644501 1925.949219 C 278.654297 1929.503906 275.802704 1932.345703 272.248047 1932.345703 Z M 269.396484 1926.681641 L 271.505859 1926.681641 L 271.505859 1928.800781 C 271.505859 1929.240234 271.798828 1929.542969 272.228516 1929.542969 C 272.677734 1929.542969 272.970703 1929.240234 272.970703 1928.800781 L 272.970703 1926.681641 L 275.099609 1926.681641 C 275.539093 1926.681641 275.841797 1926.388672 275.841797 1925.958984 C 275.841797 1925.519531 275.539093 1925.216797 275.099609 1925.216797 L 272.970703 1925.216797 L 272.970703 1923.107422 C 272.970703 1922.658203 272.677734 1922.355469 272.228516 1922.355469 C 271.798828 1922.355469 271.505859 1922.658203 271.505859 1923.107422 L 271.505859 1925.216797 L 269.396484 1925.216797 C 268.947266 1925.216797 268.644531 1925.519531 268.644531 1925.958984 C 268.644531 1926.388672 268.947266 1926.681641 269.396484 1926.681641 Z"/>
        </g>
        <g id="g1">
            <path id="path3" fill="#000000" stroke="none" d="M 293.214996 1935.910156 C 298.664185 1935.910156 303.175903 1931.388672 303.175903 1925.949219 C 303.175903 1920.5 298.654388 1915.988281 293.2052 1915.988281 C 287.765778 1915.988281 283.254059 1920.5 283.254059 1925.949219 C 283.254059 1931.388672 287.775543 1935.910156 293.214996 1935.910156 Z M 293.214996 1934.25 C 288.605621 1934.25 284.923981 1930.558594 284.923981 1925.949219 C 284.923981 1921.339844 288.595825 1917.648438 293.2052 1917.648438 C 297.814606 1917.648438 301.506012 1921.339844 301.515808 1925.949219 C 301.525513 1930.558594 297.824402 1934.25 293.214996 1934.25 Z M 289.494293 1926.769531 L 292.384888 1926.769531 L 292.384888 1929.679688 C 292.384888 1930.167969 292.716888 1930.5 293.195496 1930.5 C 293.683685 1930.5 294.025513 1930.167969 294.025513 1929.679688 L 294.025513 1926.769531 L 296.935699 1926.769531 C 297.424011 1926.769531 297.756012 1926.4375 297.756012 1925.958984 C 297.756012 1925.470703 297.424011 1925.128906 296.935699 1925.128906 L 294.025513 1925.128906 L 294.025513 1922.238281 C 294.025513 1921.730469 293.683685 1921.398438 293.195496 1921.398438 C 292.716888 1921.398438 292.384888 1921.740234 292.384888 1922.238281 L 292.384888 1925.128906 L 289.494293 1925.128906 C 288.986481 1925.128906 288.654449 1925.470703 288.654449 1925.958984 C 288.654449 1926.4375 288.996216 1926.769531 289.494293 1926.769531 Z"/>
        </g>
        <g id="g2">
            <path id="path4" fill="#000000" stroke="none" d="M 319.894714 1938.664063 C 326.857605 1938.664063 332.619293 1932.902344 332.619293 1925.949219 C 332.619293 1918.986328 326.847809 1913.224609 319.884888 1913.224609 C 312.931824 1913.224609 307.179871 1918.986328 307.179871 1925.949219 C 307.179871 1932.902344 312.941589 1938.664063 319.894714 1938.664063 Z M 319.894714 1936.847656 C 313.859558 1936.847656 309.006042 1931.984375 309.006042 1925.949219 C 309.006042 1919.904297 313.849792 1915.050781 319.884888 1915.050781 C 325.929901 1915.050781 330.783386 1919.904297 330.793091 1925.949219 C 330.802887 1931.984375 325.939606 1936.847656 319.894714 1936.847656 Z M 314.982605 1926.857422 L 318.986511 1926.857422 L 318.986511 1930.871094 C 318.986511 1931.408203 319.357605 1931.779297 319.875214 1931.779297 C 320.412292 1931.779297 320.783386 1931.408203 320.783386 1930.871094 L 320.783386 1926.857422 L 324.806793 1926.857422 C 325.334198 1926.857422 325.714996 1926.486328 325.714996 1925.96875 C 325.714996 1925.431641 325.343903 1925.050781 324.806793 1925.050781 L 320.783386 1925.050781 L 320.783386 1921.046875 C 320.783386 1920.490234 320.412292 1920.119141 319.875214 1920.119141 C 319.357605 1920.119141 318.986511 1920.5 318.986511 1921.046875 L 318.986511 1925.050781 L 314.982605 1925.050781 C 314.425964 1925.050781 314.054871 1925.431641 314.054871 1925.96875 C 314.054871 1926.486328 314.43573 1926.857422 314.982605 1926.857422 Z"/>
        </g>
        <text id="Design-Variations" xml:space="preserve" x="263" y="1953" font-family="Helvetica" font-size="12" font-weight="700" fill="#000000">Design Variations</text>
        <text id="Symbols-are-supported-in" xml:space="preserve" x="263" y="1971" font-family="Helvetica" font-size="12" fill="#000000">Symbols are supported in up to nine weights and three scales.</text>
        <text id="For-optimal-layout-with" xml:space="preserve" x="263" y="1989" font-family="Helvetica" font-size="12" fill="#000000">For optimal layout with text and other symbols, vertically align</text>
        <text id="symbols-with-the-adjacent" xml:space="preserve" x="263" y="2007" font-family="Helvetica" font-size="12" fill="#000000">symbols with the adjacent text.</text>
        <path id="path5" fill="none" stroke="#00aeef" stroke-width="0.5" stroke-linecap="round" stroke-linejoin="round" d="M 776 1919 L 776 1933"/>
        <g id="g3">
            <path id="path6" fill="#000000" stroke="none" d="M 779.310547 1933.126953 C 779.828125 1933.126953 780.082031 1932.931641 780.267578 1932.394531 L 781.527344 1928.9375 L 787.289124 1928.9375 L 788.548828 1932.394531 C 788.734375 1932.931641 788.988281 1933.126953 789.496094 1933.126953 C 790.013672 1933.126953 790.345703 1932.814453 790.345703 1932.326172 C 790.345703 1932.160156 790.316406 1932.013672 790.238281 1931.798828 L 785.658203 1919.611328 C 785.433594 1919.005859 785.033203 1918.712891 784.408203 1918.712891 C 783.802734 1918.712891 783.392578 1919.005859 783.177734 1919.601563 L 778.597656 1931.808594 C 778.519531 1932.023438 778.490234 1932.169922 778.490234 1932.335938 C 778.490234 1932.824219 778.802734 1933.126953 779.310547 1933.126953 Z M 782.005859 1927.462891 L 784.378906 1920.890625 L 784.427734 1920.890625 L 786.800781 1927.462891 Z"/>
        </g>
        <path id="path7" fill="none" stroke="#00aeef" stroke-width="0.5" stroke-linecap="round" stroke-linejoin="round" d="M 792.835999 1919 L 792.835999 1933"/>
        <text id="Margins" xml:space="preserve" x="776" y="1953" font-family="Helvetica" font-size="12" font-weight="700" fill="#000000">Margins</text>
        <text id="Leading-and-trailing-margins" xml:space="preserve" x="776" y="1971" font-family="Helvetica" font-size="12" fill="#000000">Leading and trailing margins on the left and right side of each symbol</text>
        <text id="can-be-adjusted-by" xml:space="preserve" x="776" y="1989" font-family="Helvetica" font-size="12" fill="#000000">can be adjusted by modifying the x-location of the margin guidelines.</text>
        <text id="Modifications-are-automatically-applied" xml:space="preserve" x="776" y="2007" font-family="Helvetica" font-size="12" fill="#000000">Modifications are automatically applied proportionally to all</text>
        <text id="scales-and-weights" xml:space="preserve" x="776" y="2025" font-family="Helvetica" font-size="12" fill="#000000">scales and weights.</text>
        <g id="g4">
            <path id="path8" fill="#000000" stroke="none" d="M 1291.841797 1934.865234 L 1293.541016 1936.574219 C 1294.400391 1937.443359 1295.386719 1937.384766 1296.314453 1936.359375 L 1306.490234 1925.148438 C 1306.753906 1925.236328 1307.027344 1925.216797 1307.339844 1925.158203 L 1308.404297 1924.962891 L 1309.068359 1925.636719 L 1309.029297 1926.193359 C 1308.990234 1926.691406 1309.117188 1927.072266 1309.605469 1927.550781 L 1310.367188 1928.292969 C 1310.845703 1928.771484 1311.460938 1928.800781 1311.929688 1928.332031 L 1314.839844 1925.412109 C 1315.308594 1924.943359 1315.289063 1924.347656 1314.810547 1923.869141 L 1314.039063 1923.107422 C 1313.560547 1922.628906 1313.189453 1922.472656 1312.710938 1922.511719 L 1312.134766 1922.560547 L 1311.490234 1921.925781 L 1311.734375 1920.802734 C 1311.861328 1920.236328 1311.705078 1919.796875 1311.119141 1919.210938 L 1308.921875 1917.023438 C 1305.582031 1913.703125 1301.148438 1913.78125 1298.257813 1916.671875 C 1297.837891 1917.082031 1297.808594 1917.658203 1298.042969 1918.048828 C 1298.277344 1918.410156 1298.736328 1918.644531 1299.380859 1918.478516 C 1300.845703 1918.136719 1302.369141 1918.078125 1303.794922 1919.015625 L 1303.208984 1920.470703 C 1303.013672 1920.949219 1302.984375 1921.349609 1303.111328 1921.710938 L 1292.046875 1932.101563 C 1291.060547 1933.019531 1290.982422 1933.996094 1291.841797 1934.865234 Z M 1299.751953 1917.042969 C 1302.183594 1915.265625 1305.474609 1915.568359 1307.701172 1917.794922 L 1310.132813 1920.207031 C 1310.367188 1920.441406 1310.40625 1920.626953 1310.337891 1920.96875 L 1310.015625 1922.453125 L 1311.519531 1923.9375 L 1312.505859 1923.878906 C 1312.759766 1923.869141 1312.837891 1923.888672 1313.033203 1924.083984 L 1313.609375 1924.660156 L 1311.167969 1927.101563 L 1310.591797 1926.525391 C 1310.396484 1926.330078 1310.367188 1926.251953 1310.376953 1925.988281 L 1310.445313 1925.011719 L 1308.951172 1923.527344 L 1307.427734 1923.78125 C 1307.105469 1923.849609 1306.958984 1923.820313 1306.714844 1923.585938 L 1304.712891 1921.583984 C 1304.458984 1921.349609 1304.429688 1921.183594 1304.585938 1920.8125 L 1305.464844 1918.722656 C 1303.902344 1917.267578 1301.871094 1916.642578 1299.839844 1917.238281 C 1299.683594 1917.277344 1299.625 1917.150391 1299.751953 1917.042969 Z M 1294.273438 1935.304688 L 1293.101563 1934.142578 C 1292.632813 1933.683594 1292.740234 1933.341797 1293.140625 1932.980469 L 1303.951172 1922.804688 L 1305.416016 1924.289063 L 1295.425781 1935.275391 C 1295.074219 1935.675781 1294.742188 1935.773438 1294.273438 1935.304688 Z"/>
        </g>
        <text id="Exporting" xml:space="preserve" x="1289" y="1953" font-family="Helvetica" font-size="12" font-weight="700" fill="#000000">Exporting</text>
        <text id="Symbols-should-be-outlined" xml:space="preserve" x="1289" y="1971" font-family="Helvetica" font-size="12" fill="#000000">Symbols should be outlined when exporting to ensure the</text>
        <text id="design-is-preserved-when" xml:space="preserve" x="1289" y="1989" font-family="Helvetica" font-size="12" fill="#000000">design is preserved when submitting to Xcode.</text>
        <text id="template-version" xml:space="preserve" x="3036" y="1933" text-anchor="end" font-family="Helvetica" font-size="12" fill="#000000">Template v.2.0</text>
        <text id="Requires-Xcode-12-or" xml:space="preserve" x="3036" y="1951" text-anchor="end" font-family="Helvetica" font-size="12" fill="#000000">Requires Xcode 12 or greater</text>
        <text id="Small" xml:space="preserve" x="263" y="726" font-family="Helvetica" font-size="12" fill="#000000">Small</text>
        <text id="text1" xml:space="preserve" x="263" y="1156" font-family="Helvetica" font-size="12" fill="#000000">Medium</text>
        <text id="Large" xml:space="preserve" x="263" y="1586" font-family="Helvetica" font-size="12" fill="#000000">Large</text>
    </g>
    <g id="Guides">
        <g id="H-reference">
            <path id="path9" fill="#27aae1" stroke="none" d="M 339.976563 696 L 342.662109 696 L 351.988312 671.537109 L 384.752014 671.537109 L 394.127014 696 L 396.763702 696 L 369.615204 625.541016 L 367.125 625.541016 Z M 368.345703 628.861328 L 368.44339 628.861328 L 383.872986 669.291016 L 352.867188 669.291016 Z"/>
        </g>
        <path id="Baseline-S" fill="none" stroke="#27aae1" stroke-width="0.5" stroke-linecap="round" stroke-linejoin="round" d="M 263 696 L 3036 696"/>
        <path id="Capline-S" fill="none" stroke="#27aae1" stroke-width="0.5" stroke-linecap="round" stroke-linejoin="round" d="M 263 625.541016 L 3036 625.541016"/>
        <g id="g5">
            <path id="path10" fill="#27aae1" stroke="none" d="M 339.976563 1126 L 342.662109 1126 L 351.988312 1101.537109 L 384.752014 1101.537109 L 394.127014 1126 L 396.763702 1126 L 369.615204 1055.541016 L 367.125 1055.541016 Z M 368.345703 1058.861328 L 368.44339 1058.861328 L 383.872986 1099.291016 L 352.867188 1099.291016 Z"/>
        </g>
        <path id="Baseline-M" fill="none" stroke="#27aae1" stroke-width="0.5" stroke-linecap="round" stroke-linejoin="round" d="M 263 1126 L 3036 1126"/>
        <path id="Capline-M" fill="none" stroke="#27aae1" stroke-width="0.5" stroke-linecap="round" stroke-linejoin="round" d="M 263 1055.540039 L 3036 1055.540039"/>
        <g id="g6">
            <path id="path11" fill="#27aae1" stroke="none" d="M 339.976563 1556 L 342.662109 1556 L 351.988312 1531.537109 L 384.752014 1531.537109 L 394.127014 1556 L 396.763702 1556 L 369.615204 1485.541016 L 367.125 1485.541016 Z M 368.345703 1488.861328 L 368.44339 1488.861328 L 383.872986 1529.291016 L 352.867188 1529.291016 Z"/>
        </g>
        <path id="Baseline-L" fill="none" stroke="#27aae1" stroke-width="0.5" stroke-linecap="round" stroke-linejoin="round" d="M 263 1556 L 3036 1556"/>
        <path id="Capline-L" fill="none" stroke="#27aae1" stroke-width="0.5" stroke-linecap="round" stroke-linejoin="round" d="M 263 1485.540039 L 3036 1485.540039"/>
        <path id="left-margin" fill="none" stroke="#00aeef" stroke-width="0.5" stroke-linecap="round" stroke-linejoin="round" d="M 1415.715576 1030.790039 L 1415.715576 1150.119995"/>
        <path id="right-margin" fill="none" stroke="#00aeef" stroke-width="0.5" stroke-linecap="round" stroke-linejoin="round" d="M 1486.544434 1030.790039 L 1486.544434 1150.119995"/>
    </g>
    <g id="Symbols">

        <g id="Black-L">
            <path id="path12" class="multicolor-0:systemBlueColor" stroke="none" d="M 2934.350342 1475.323364 C 2911.155518 1475.323364 2912.603516 1485.382324 2912.603516 1485.382324 L 2912.629395 1495.803345 L 2934.764404 1495.803345 L 2934.764404 1498.931396 L 2903.838379 1498.931396 C 2903.838379 1498.931396 2888.995361 1497.248291 2888.995361 1520.652344 C 2888.995361 1544.056396 2901.950439 1543.227295 2901.950439 1543.227295 L 2909.682373 1543.227295 L 2909.682373 1532.366333 C 2909.682373 1532.366333 2909.265381 1519.411377 2922.43042 1519.411377 C 2935.594482 1519.411377 2944.383545 1519.411377 2944.383545 1519.411377 C 2944.383545 1519.411377 2956.718506 1519.611328 2956.718506 1507.491333 C 2956.718506 1495.371338 2956.718506 1487.450317 2956.718506 1487.450317 C 2956.718506 1487.450317 2958.590332 1475.323364 2934.350342 1475.323364 Z M 2922.145508 1482.331299 C 2924.347412 1482.331299 2926.127441 1484.110352 2926.127441 1486.313354 C 2926.127441 1488.515381 2924.347412 1490.29541 2922.145508 1490.29541 C 2919.943359 1490.29541 2918.16333 1488.515381 2918.16333 1486.313354 C 2918.16333 1484.110352 2919.943359 1482.331299 2922.145508 1482.331299 Z"/>
            <path id="path13" class="multicolor-1:systemYellowColor" stroke="none" d="M 2935.009521 1566.216309 C 2958.204346 1566.216309 2956.756348 1556.158325 2956.756348 1556.158325 L 2956.730469 1545.737305 L 2934.595459 1545.737305 L 2934.595459 1542.608398 L 2965.522461 1542.608398 C 2965.522461 1542.608398 2980.364502 1544.29126 2980.364502 1520.887329 C 2980.364502 1497.483398 2967.409424 1498.313354 2967.409424 1498.313354 L 2959.678467 1498.313354 L 2959.678467 1509.17334 C 2959.678467 1509.17334 2960.094482 1522.128418 2946.93042 1522.128418 C 2933.765381 1522.128418 2924.976318 1522.128418 2924.976318 1522.128418 C 2924.976318 1522.128418 2912.642334 1521.929321 2912.642334 1534.049316 C 2912.642334 1546.169434 2912.642334 1554.089355 2912.642334 1554.089355 C 2912.642334 1554.089355 2910.769531 1566.216309 2935.009521 1566.216309 Z M 2947.214355 1559.209351 C 2945.012451 1559.209351 2943.232422 1557.429321 2943.232422 1555.227295 C 2943.232422 1553.024414 2945.012451 1551.244385 2947.214355 1551.244385 C 2949.416504 1551.244385 2951.196533 1553.024414 2951.196533 1555.227295 C 2951.196533 1557.429321 2949.416504 1559.209351 2947.214355 1559.209351 Z"/>
        </g>
        <g id="Heavy-L">
            <path id="path14" class="multicolor-0:systemBlueColor" stroke="none" d="M 2637.640381 1475.323364 C 2614.445313 1475.323364 2615.893311 1485.382324 2615.893311 1485.382324 L 2615.919434 1495.803345 L 2638.054443 1495.803345 L 2638.054443 1498.931396 L 2607.128418 1498.931396 C 2607.128418 1498.931396 2592.2854 1497.248291 2592.2854 1520.652344 C 2592.2854 1544.056396 2605.240479 1543.227295 2605.240479 1543.227295 L 2612.972412 1543.227295 L 2612.972412 1532.366333 C 2612.972412 1532.366333 2612.55542 1519.411377 2625.720459 1519.411377 C 2638.884521 1519.411377 2647.67334 1519.411377 2647.67334 1519.411377 C 2647.67334 1519.411377 2660.008545 1519.611328 2660.008545 1507.491333 C 2660.008545 1495.371338 2660.008545 1487.450317 2660.008545 1487.450317 C 2660.008545 1487.450317 2661.880371 1475.323364 2637.640381 1475.323364 Z M 2625.435547 1482.331299 C 2627.637451 1482.331299 2629.41748 1484.110352 2629.41748 1486.313354 C 2629.41748 1488.515381 2627.637451 1490.29541 2625.435547 1490.29541 C 2623.233398 1490.29541 2621.453369 1488.515381 2621.453369 1486.313354 C 2621.453369 1484.110352 2623.233398 1482.331299 2625.435547 1482.331299 Z"/>
            <path id="path15" class="multicolor-1:systemYellowColor" stroke="none" d="M 2638.299316 1566.216309 C 2661.494385 1566.216309 2660.046387 1556.158325 2660.046387 1556.158325 L 2660.020508 1545.737305 L 2637.885498 1545.737305 L 2637.885498 1542.608398 L 2668.8125 1542.608398 C 2668.8125 1542.608398 2683.654541 1544.29126 2683.654541 1520.887329 C 2683.654541 1497.483398 2670.699463 1498.313354 2670.699463 1498.313354 L 2662.968506 1498.313354 L 2662.968506 1509.17334 C 2662.968506 1509.17334 2663.384521 1522.128418 2650.220459 1522.128418 C 2637.05542 1522.128418 2628.266357 1522.128418 2628.266357 1522.128418 C 2628.266357 1522.128418 2615.932373 1521.929321 2615.932373 1534.049316 C 2615.932373 1546.169434 2615.932373 1554.089355 2615.932373 1554.089355 C 2615.932373 1554.089355 2614.059326 1566.216309 2638.299316 1566.216309 Z M 2650.504395 1559.209351 C 2648.30249 1559.209351 2646.522461 1557.429321 2646.522461 1555.227295 C 2646.522461 1553.024414 2648.30249 1551.244385 2650.504395 1551.244385 C 2652.706543 1551.244385 2654.486328 1553.024414 2654.486328 1555.227295 C 2654.486328 1557.429321 2652.706543 1559.209351 2650.504395 1559.209351 Z"/>
        </g>
        <g id="Bold-L">
            <path id="path16" class="multicolor-0:systemBlueColor" stroke="none" d="M 2340.93042 1475.323364 C 2317.735352 1475.323364 2319.18335 1485.382324 2319.18335 1485.382324 L 2319.209473 1495.803345 L 2341.344482 1495.803345 L 2341.344482 1498.931396 L 2310.418457 1498.931396 C 2310.418457 1498.931396 2295.575439 1497.248291 2295.575439 1520.652344 C 2295.575439 1544.056396 2308.530518 1543.227295 2308.530518 1543.227295 L 2316.262451 1543.227295 L 2316.262451 1532.366333 C 2316.262451 1532.366333 2315.845459 1519.411377 2329.010498 1519.411377 C 2342.174316 1519.411377 2350.963379 1519.411377 2350.963379 1519.411377 C 2350.963379 1519.411377 2363.29834 1519.611328 2363.29834 1507.491333 C 2363.29834 1495.371338 2363.29834 1487.450317 2363.29834 1487.450317 C 2363.29834 1487.450317 2365.17041 1475.323364 2340.93042 1475.323364 Z M 2328.725342 1482.331299 C 2330.92749 1482.331299 2332.70752 1484.110352 2332.70752 1486.313354 C 2332.70752 1488.515381 2330.92749 1490.29541 2328.725342 1490.29541 C 2326.523438 1490.29541 2324.743408 1488.515381 2324.743408 1486.313354 C 2324.743408 1484.110352 2326.523438 1482.331299 2328.725342 1482.331299 Z"/>
            <path id="path17" class="multicolor-1:systemYellowColor" stroke="none" d="M 2341.589355 1566.216309 C 2364.784424 1566.216309 2363.336426 1556.158325 2363.336426 1556.158325 L 2363.310547 1545.737305 L 2341.175537 1545.737305 L 2341.175537 1542.608398 L 2372.102539 1542.608398 C 2372.102539 1542.608398 2386.944336 1544.29126 2386.944336 1520.887329 C 2386.944336 1497.483398 2373.989502 1498.313354 2373.989502 1498.313354 L 2366.258545 1498.313354 L 2366.258545 1509.17334 C 2366.258545 1509.17334 2366.674316 1522.128418 2353.510498 1522.128418 C 2340.345459 1522.128418 2331.556396 1522.128418 2331.556396 1522.128418 C 2331.556396 1522.128418 2319.222412 1521.929321 2319.222412 1534.049316 C 2319.222412 1546.169434 2319.222412 1554.089355 2319.222412 1554.089355 C 2319.222412 1554.089355 2317.349365 1566.216309 2341.589355 1566.216309 Z M 2353.794434 1559.209351 C 2351.592529 1559.209351 2349.8125 1557.429321 2349.8125 1555.227295 C 2349.8125 1553.024414 2351.592529 1551.244385 2353.794434 1551.244385 C 2355.996338 1551.244385 2357.776367 1553.024414 2357.776367 1555.227295 C 2357.776367 1557.429321 2355.996338 1559.209351 2353.794434 1559.209351 Z"/>
        </g>
        <g id="Semibold-L">
            <path id="path18" class="multicolor-0:systemBlueColor" stroke="none" d="M 2044.220459 1475.323364 C 2021.025391 1475.323364 2022.473389 1485.382324 2022.473389 1485.382324 L 2022.49939 1495.803345 L 2044.634399 1495.803345 L 2044.634399 1498.931396 L 2013.708374 1498.931396 C 2013.708374 1498.931396 1998.865479 1497.248291 1998.865479 1520.652344 C 1998.865479 1544.056396 2011.820435 1543.227295 2011.820435 1543.227295 L 2019.55249 1543.227295 L 2019.55249 1532.366333 C 2019.55249 1532.366333 2019.135376 1519.411377 2032.300415 1519.411377 C 2045.464478 1519.411377 2054.253418 1519.411377 2054.253418 1519.411377 C 2054.253418 1519.411377 2066.588379 1519.611328 2066.588379 1507.491333 C 2066.588379 1495.371338 2066.588379 1487.450317 2066.588379 1487.450317 C 2066.588379 1487.450317 2068.460449 1475.323364 2044.220459 1475.323364 Z M 2032.015381 1482.331299 C 2034.217407 1482.331299 2035.997437 1484.110352 2035.997437 1486.313354 C 2035.997437 1488.515381 2034.217407 1490.29541 2032.015381 1490.29541 C 2029.813477 1490.29541 2028.033447 1488.515381 2028.033447 1486.313354 C 2028.033447 1484.110352 2029.813477 1482.331299 2032.015381 1482.331299 Z"/>
            <path id="path19" class="multicolor-1:systemYellowColor" stroke="none" d="M 2044.879395 1566.216309 C 2068.074463 1566.216309 2066.626465 1556.158325 2066.626465 1556.158325 L 2066.600342 1545.737305 L 2044.465454 1545.737305 L 2044.465454 1542.608398 L 2075.392334 1542.608398 C 2075.392334 1542.608398 2090.234375 1544.29126 2090.234375 1520.887329 C 2090.234375 1497.483398 2077.279541 1498.313354 2077.279541 1498.313354 L 2069.54834 1498.313354 L 2069.54834 1509.17334 C 2069.54834 1509.17334 2069.964355 1522.128418 2056.800537 1522.128418 C 2043.635376 1522.128418 2034.846436 1522.128418 2034.846436 1522.128418 C 2034.846436 1522.128418 2022.512451 1521.929321 2022.512451 1534.049316 C 2022.512451 1546.169434 2022.512451 1554.089355 2022.512451 1554.089355 C 2022.512451 1554.089355 2020.639404 1566.216309 2044.879395 1566.216309 Z M 2057.084473 1559.209351 C 2054.882324 1559.209351 2053.102539 1557.429321 2053.102539 1555.227295 C 2053.102539 1553.024414 2054.882324 1551.244385 2057.084473 1551.244385 C 2059.286377 1551.244385 2061.066406 1553.024414 2061.066406 1555.227295 C 2061.066406 1557.429321 2059.286377 1559.209351 2057.084473 1559.209351 Z"/>
        </g>
        <g id="Medium-L">
            <path id="path20" class="multicolor-0:systemBlueColor" stroke="none" d="M 1747.510376 1475.323364 C 1724.31543 1475.323364 1725.763428 1485.382324 1725.763428 1485.382324 L 1725.789429 1495.803345 L 1747.924438 1495.803345 L 1747.924438 1498.931396 L 1716.998413 1498.931396 C 1716.998413 1498.931396 1702.155396 1497.248291 1702.155396 1520.652344 C 1702.155396 1544.056396 1715.110474 1543.227295 1715.110474 1543.227295 L 1722.842407 1543.227295 L 1722.842407 1532.366333 C 1722.842407 1532.366333 1722.425415 1519.411377 1735.590454 1519.411377 C 1748.754395 1519.411377 1757.543457 1519.411377 1757.543457 1519.411377 C 1757.543457 1519.411377 1769.878418 1519.611328 1769.878418 1507.491333 C 1769.878418 1495.371338 1769.878418 1487.450317 1769.878418 1487.450317 C 1769.878418 1487.450317 1771.750488 1475.323364 1747.510376 1475.323364 Z M 1735.30542 1482.331299 C 1737.507446 1482.331299 1739.287476 1484.110352 1739.287476 1486.313354 C 1739.287476 1488.515381 1737.507446 1490.29541 1735.30542 1490.29541 C 1733.103394 1490.29541 1731.323486 1488.515381 1731.323486 1486.313354 C 1731.323486 1484.110352 1733.103394 1482.331299 1735.30542 1482.331299 Z"/>
            <path id="path21" class="multicolor-1:systemYellowColor" stroke="none" d="M 1748.169434 1566.216309 C 1771.36438 1566.216309 1769.916382 1556.158325 1769.916382 1556.158325 L 1769.890381 1545.737305 L 1747.755371 1545.737305 L 1747.755371 1542.608398 L 1778.682373 1542.608398 C 1778.682373 1542.608398 1793.524414 1544.29126 1793.524414 1520.887329 C 1793.524414 1497.483398 1780.569458 1498.313354 1780.569458 1498.313354 L 1772.838379 1498.313354 L 1772.838379 1509.17334 C 1772.838379 1509.17334 1773.254395 1522.128418 1760.090454 1522.128418 C 1746.925415 1522.128418 1738.136475 1522.128418 1738.136475 1522.128418 C 1738.136475 1522.128418 1725.80249 1521.929321 1725.80249 1534.049316 C 1725.80249 1546.169434 1725.80249 1554.089355 1725.80249 1554.089355 C 1725.80249 1554.089355 1723.929443 1566.216309 1748.169434 1566.216309 Z M 1760.37439 1559.209351 C 1758.172485 1559.209351 1756.392456 1557.429321 1756.392456 1555.227295 C 1756.392456 1553.024414 1758.172485 1551.244385 1760.37439 1551.244385 C 1762.576416 1551.244385 1764.356445 1553.024414 1764.356445 1555.227295 C 1764.356445 1557.429321 1762.576416 1559.209351 1760.37439 1559.209351 Z"/>
        </g>
        <g id="Regular-L">
            <path id="path22" class="multicolor-0:systemBlueColor" stroke="none" d="M 1450.800415 1475.323364 C 1427.605469 1475.323364 1429.053467 1485.382324 1429.053467 1485.382324 L 1429.079468 1495.803345 L 1451.214478 1495.803345 L 1451.214478 1498.931396 L 1420.288452 1498.931396 C 1420.288452 1498.931396 1405.445435 1497.248291 1405.445435 1520.652344 C 1405.445435 1544.056396 1418.400391 1543.227295 1418.400391 1543.227295 L 1426.132446 1543.227295 L 1426.132446 1532.366333 C 1426.132446 1532.366333 1425.715454 1519.411377 1438.880493 1519.411377 C 1452.044434 1519.411377 1460.833374 1519.411377 1460.833374 1519.411377 C 1460.833374 1519.411377 1473.168457 1519.611328 1473.168457 1507.491333 C 1473.168457 1495.371338 1473.168457 1487.450317 1473.168457 1487.450317 C 1473.168457 1487.450317 1475.040405 1475.323364 1450.800415 1475.323364 Z M 1438.595459 1482.331299 C 1440.797485 1482.331299 1442.577393 1484.110352 1442.577393 1486.313354 C 1442.577393 1488.515381 1440.797485 1490.29541 1438.595459 1490.29541 C 1436.393433 1490.29541 1434.613403 1488.515381 1434.613403 1486.313354 C 1434.613403 1484.110352 1436.393433 1482.331299 1438.595459 1482.331299 Z"/>
            <path id="path23" class="multicolor-1:systemYellowColor" stroke="none" d="M 1451.459473 1566.216309 C 1474.654419 1566.216309 1473.206421 1556.158325 1473.206421 1556.158325 L 1473.18042 1545.737305 L 1451.04541 1545.737305 L 1451.04541 1542.608398 L 1481.972412 1542.608398 C 1481.972412 1542.608398 1496.814453 1544.29126 1496.814453 1520.887329 C 1496.814453 1497.483398 1483.859375 1498.313354 1483.859375 1498.313354 L 1476.128418 1498.313354 L 1476.128418 1509.17334 C 1476.128418 1509.17334 1476.544434 1522.128418 1463.380493 1522.128418 C 1450.215454 1522.128418 1441.426392 1522.128418 1441.426392 1522.128418 C 1441.426392 1522.128418 1429.092407 1521.929321 1429.092407 1534.049316 C 1429.092407 1546.169434 1429.092407 1554.089355 1429.092407 1554.089355 C 1429.092407 1554.089355 1427.219482 1566.216309 1451.459473 1566.216309 Z M 1463.664429 1559.209351 C 1461.462402 1559.209351 1459.682373 1557.429321 1459.682373 1555.227295 C 1459.682373 1553.024414 1461.462402 1551.244385 1463.664429 1551.244385 C 1465.866455 1551.244385 1467.646484 1553.024414 1467.646484 1555.227295 C 1467.646484 1557.429321 1465.866455 1559.209351 1463.664429 1559.209351 Z"/>
        </g>
        <g id="Light-L">
            <path id="path24" class="multicolor-0:systemBlueColor" stroke="none" d="M 1154.090454 1475.323364 C 1130.895386 1475.323364 1132.343384 1485.382324 1132.343384 1485.382324 L 1132.369385 1495.803345 L 1154.504395 1495.803345 L 1154.504395 1498.931396 L 1123.578491 1498.931396 C 1123.578491 1498.931396 1108.735474 1497.248291 1108.735474 1520.652344 C 1108.735474 1544.056396 1121.69043 1543.227295 1121.69043 1543.227295 L 1129.422485 1543.227295 L 1129.422485 1532.366333 C 1129.422485 1532.366333 1129.005371 1519.411377 1142.17041 1519.411377 C 1155.334473 1519.411377 1164.123413 1519.411377 1164.123413 1519.411377 C 1164.123413 1519.411377 1176.458374 1519.611328 1176.458374 1507.491333 C 1176.458374 1495.371338 1176.458374 1487.450317 1176.458374 1487.450317 C 1176.458374 1487.450317 1178.330444 1475.323364 1154.090454 1475.323364 Z M 1141.885376 1482.331299 C 1144.087402 1482.331299 1145.867432 1484.110352 1145.867432 1486.313354 C 1145.867432 1488.515381 1144.087402 1490.29541 1141.885376 1490.29541 C 1139.683472 1490.29541 1137.903442 1488.515381 1137.903442 1486.313354 C 1137.903442 1484.110352 1139.683472 1482.331299 1141.885376 1482.331299 Z"/>
            <path id="path25" class="multicolor-1:systemYellowColor" stroke="none" d="M 1154.74939 1566.216309 C 1177.944458 1566.216309 1176.49646 1556.158325 1176.49646 1556.158325 L 1176.470459 1545.737305 L 1154.335449 1545.737305 L 1154.335449 1542.608398 L 1185.262451 1542.608398 C 1185.262451 1542.608398 1200.104492 1544.29126 1200.104492 1520.887329 C 1200.104492 1497.483398 1187.149414 1498.313354 1187.149414 1498.313354 L 1179.418457 1498.313354 L 1179.418457 1509.17334 C 1179.418457 1509.17334 1179.834473 1522.128418 1166.67041 1522.128418 C 1153.505371 1522.128418 1144.716431 1522.128418 1144.716431 1522.128418 C 1144.716431 1522.128418 1132.382446 1521.929321 1132.382446 1534.049316 C 1132.382446 1546.169434 1132.382446 1554.089355 1132.382446 1554.089355 C 1132.382446 1554.089355 1130.509399 1566.216309 1154.74939 1566.216309 Z M 1166.954468 1559.209351 C 1164.752441 1559.209351 1162.972412 1557.429321 1162.972412 1555.227295 C 1162.972412 1553.024414 1164.752441 1551.244385 1166.954468 1551.244385 C 1169.156372 1551.244385 1170.936401 1553.024414 1170.936401 1555.227295 C 1170.936401 1557.429321 1169.156372 1559.209351 1166.954468 1559.209351 Z"/>
        </g>
        <g id="Thin-L">
            <path id="path26" class="multicolor-0:systemBlueColor" stroke="none" d="M 857.380432 1475.323364 C 834.185425 1475.323364 835.633423 1485.382324 835.633423 1485.382324 L 835.659424 1495.803345 L 857.794434 1495.803345 L 857.794434 1498.931396 L 826.868408 1498.931396 C 826.868408 1498.931396 812.025452 1497.248291 812.025452 1520.652344 C 812.025452 1544.056396 824.980408 1543.227295 824.980408 1543.227295 L 832.712402 1543.227295 L 832.712402 1532.366333 C 832.712402 1532.366333 832.29541 1519.411377 845.460449 1519.411377 C 858.624451 1519.411377 867.413452 1519.411377 867.413452 1519.411377 C 867.413452 1519.411377 879.748413 1519.611328 879.748413 1507.491333 C 879.748413 1495.371338 879.748413 1487.450317 879.748413 1487.450317 C 879.748413 1487.450317 881.620422 1475.323364 857.380432 1475.323364 Z M 845.175415 1482.331299 C 847.377441 1482.331299 849.15741 1484.110352 849.15741 1486.313354 C 849.15741 1488.515381 847.377441 1490.29541 845.175415 1490.29541 C 842.97345 1490.29541 841.19342 1488.515381 841.19342 1486.313354 C 841.19342 1484.110352 842.97345 1482.331299 845.175415 1482.331299 Z"/>
            <path id="path27" class="multicolor-1:systemYellowColor" stroke="none" d="M 858.039429 1566.216309 C 881.234436 1566.216309 879.786438 1556.158325 879.786438 1556.158325 L 879.760437 1545.737305 L 857.625427 1545.737305 L 857.625427 1542.608398 L 888.552429 1542.608398 C 888.552429 1542.608398 903.394409 1544.29126 903.394409 1520.887329 C 903.394409 1497.483398 890.439453 1498.313354 890.439453 1498.313354 L 882.708435 1498.313354 L 882.708435 1509.17334 C 882.708435 1509.17334 883.124451 1522.128418 869.960449 1522.128418 C 856.79541 1522.128418 848.006409 1522.128418 848.006409 1522.128418 C 848.006409 1522.128418 835.672424 1521.929321 835.672424 1534.049316 C 835.672424 1546.169434 835.672424 1554.089355 835.672424 1554.089355 C 835.672424 1554.089355 833.799438 1566.216309 858.039429 1566.216309 Z M 870.244446 1559.209351 C 868.042419 1559.209351 866.262451 1557.429321 866.262451 1555.227295 C 866.262451 1553.024414 868.042419 1551.244385 870.244446 1551.244385 C 872.446411 1551.244385 874.22644 1553.024414 874.22644 1555.227295 C 874.22644 1557.429321 872.446411 1559.209351 870.244446 1559.209351 Z"/>
        </g>
        <g id="Ultralight-L">
            <path id="path28" class="multicolor-0:systemBlueColor" stroke="none" d="M 560.67041 1475.323364 C 537.475403 1475.323364 538.923401 1485.382324 538.923401 1485.382324 L 538.949402 1495.803345 L 561.084412 1495.803345 L 561.084412 1498.931396 L 530.158447 1498.931396 C 530.158447 1498.931396 515.31543 1497.248291 515.31543 1520.652344 C 515.31543 1544.056396 528.270447 1543.227295 528.270447 1543.227295 L 536.002441 1543.227295 L 536.002441 1532.366333 C 536.002441 1532.366333 535.585449 1519.411377 548.750427 1519.411377 C 561.914429 1519.411377 570.70343 1519.411377 570.70343 1519.411377 C 570.70343 1519.411377 583.038452 1519.611328 583.038452 1507.491333 C 583.038452 1495.371338 583.038452 1487.450317 583.038452 1487.450317 C 583.038452 1487.450317 584.910461 1475.323364 560.67041 1475.323364 Z M 548.465454 1482.331299 C 550.667419 1482.331299 552.447449 1484.110352 552.447449 1486.313354 C 552.447449 1488.515381 550.667419 1490.29541 548.465454 1490.29541 C 546.263428 1490.29541 544.483459 1488.515381 544.483459 1486.313354 C 544.483459 1484.110352 546.263428 1482.331299 548.465454 1482.331299 Z"/>
            <path id="path29" class="multicolor-1:systemYellowColor" stroke="none" d="M 561.329407 1566.216309 C 584.524414 1566.216309 583.076416 1556.158325 583.076416 1556.158325 L 583.050415 1545.737305 L 560.915405 1545.737305 L 560.915405 1542.608398 L 591.842407 1542.608398 C 591.842407 1542.608398 606.684448 1544.29126 606.684448 1520.887329 C 606.684448 1497.483398 593.729431 1498.313354 593.729431 1498.313354 L 585.998413 1498.313354 L 585.998413 1509.17334 C 585.998413 1509.17334 586.414429 1522.128418 573.250427 1522.128418 C 560.085449 1522.128418 551.296448 1522.128418 551.296448 1522.128418 C 551.296448 1522.128418 538.962402 1521.929321 538.962402 1534.049316 C 538.962402 1546.169434 538.962402 1554.089355 538.962402 1554.089355 C 538.962402 1554.089355 537.089417 1566.216309 561.329407 1566.216309 Z M 573.534424 1559.209351 C 571.332458 1559.209351 569.552429 1557.429321 569.552429 1555.227295 C 569.552429 1553.024414 571.332458 1551.244385 573.534424 1551.244385 C 575.73645 1551.244385 577.516418 1553.024414 577.516418 1555.227295 C 577.516418 1557.429321 575.73645 1559.209351 573.534424 1559.209351 Z"/>
        </g>
        <g id="Black-M">
            <path id="path30" class="multicolor-0:systemBlueColor" stroke="none" d="M 2934.424561 1055.540039 C 2916.443604 1055.540039 2917.56665 1063.338013 2917.56665 1063.338013 L 2917.58667 1071.416016 L 2934.745605 1071.416016 L 2934.745605 1073.841064 L 2910.771484 1073.841064 C 2910.771484 1073.841064 2899.265625 1072.536011 2899.265625 1090.679077 C 2899.265625 1108.822021 2909.308594 1108.177979 2909.308594 1108.177979 L 2915.301514 1108.177979 L 2915.301514 1099.759033 C 2915.301514 1099.759033 2914.978516 1089.717041 2925.183594 1089.717041 C 2935.389648 1089.717041 2942.202637 1089.717041 2942.202637 1089.717041 C 2942.202637 1089.717041 2951.763672 1089.871094 2951.763672 1080.476074 C 2951.763672 1071.081055 2951.763672 1064.94104 2951.763672 1064.94104 C 2951.763672 1064.94104 2953.215576 1055.540039 2934.424561 1055.540039 Z M 2924.963623 1060.972046 C 2926.670654 1060.972046 2928.050537 1062.352051 2928.050537 1064.059082 C 2928.050537 1065.765991 2926.670654 1067.145996 2924.963623 1067.145996 C 2923.256592 1067.145996 2921.876709 1065.765991 2921.876709 1064.059082 C 2921.876709 1062.352051 2923.256592 1060.972046 2924.963623 1060.972046 Z"/>
            <path id="path31" class="multicolor-1:systemYellowColor" stroke="none" d="M 2934.935547 1126 C 2952.915527 1126 2951.793701 1118.202026 2951.793701 1118.202026 L 2951.773682 1110.124023 L 2934.614502 1110.124023 L 2934.614502 1107.699097 L 2958.588623 1107.699097 C 2958.588623 1107.699097 2970.094727 1109.004028 2970.094727 1090.861084 C 2970.094727 1072.718018 2960.051514 1073.362061 2960.051514 1073.362061 L 2954.058594 1073.362061 L 2954.058594 1081.781006 C 2954.058594 1081.781006 2954.381592 1091.822998 2944.176514 1091.822998 C 2933.970703 1091.822998 2927.157715 1091.822998 2927.157715 1091.822998 C 2927.157715 1091.822998 2917.59668 1091.669067 2917.59668 1101.064087 C 2917.59668 1110.458984 2917.59668 1116.598999 2917.59668 1116.598999 C 2917.59668 1116.598999 2916.144531 1126 2934.935547 1126 Z M 2944.396484 1120.567993 C 2942.689697 1120.567993 2941.30957 1119.187988 2941.30957 1117.481079 C 2941.30957 1115.774048 2942.689697 1114.394043 2944.396484 1114.394043 C 2946.103516 1114.394043 2947.483643 1115.774048 2947.483643 1117.481079 C 2947.483643 1119.187988 2946.103516 1120.567993 2944.396484 1120.567993 Z"/>
        </g>
        <g id="Heavy-M">
            <path id="path32" class="multicolor-0:systemBlueColor" stroke="none" d="M 2637.7146 1055.540039 C 2619.733643 1055.540039 2620.856689 1063.338013 2620.856689 1063.338013 L 2620.876709 1071.416016 L 2638.035645 1071.416016 L 2638.035645 1073.841064 L 2614.061523 1073.841064 C 2614.061523 1073.841064 2602.555664 1072.536011 2602.555664 1090.679077 C 2602.555664 1108.822021 2612.598633 1108.177979 2612.598633 1108.177979 L 2618.591553 1108.177979 L 2618.591553 1099.759033 C 2618.591553 1099.759033 2618.268555 1089.717041 2628.473633 1089.717041 C 2638.679688 1089.717041 2645.492676 1089.717041 2645.492676 1089.717041 C 2645.492676 1089.717041 2655.053711 1089.871094 2655.053711 1080.476074 C 2655.053711 1071.081055 2655.053711 1064.94104 2655.053711 1064.94104 C 2655.053711 1064.94104 2656.505615 1055.540039 2637.7146 1055.540039 Z M 2628.253662 1060.972046 C 2629.960693 1060.972046 2631.340576 1062.352051 2631.340576 1064.059082 C 2631.340576 1065.765991 2629.960693 1067.145996 2628.253662 1067.145996 C 2626.546631 1067.145996 2625.166504 1065.765991 2625.166504 1064.059082 C 2625.166504 1062.352051 2626.546631 1060.972046 2628.253662 1060.972046 Z"/>
            <path id="path33" class="multicolor-1:systemYellowColor" stroke="none" d="M 2638.225586 1126 C 2656.205566 1126 2655.083496 1118.202026 2655.083496 1118.202026 L 2655.063721 1110.124023 L 2637.904541 1110.124023 L 2637.904541 1107.699097 L 2661.878662 1107.699097 C 2661.878662 1107.699097 2673.384521 1109.004028 2673.384521 1090.861084 C 2673.384521 1072.718018 2663.341553 1073.362061 2663.341553 1073.362061 L 2657.348633 1073.362061 L 2657.348633 1081.781006 C 2657.348633 1081.781006 2657.671631 1091.822998 2647.466553 1091.822998 C 2637.260498 1091.822998 2630.44751 1091.822998 2630.44751 1091.822998 C 2630.44751 1091.822998 2620.886719 1091.669067 2620.886719 1101.064087 C 2620.886719 1110.458984 2620.886719 1116.598999 2620.886719 1116.598999 C 2620.886719 1116.598999 2619.43457 1126 2638.225586 1126 Z M 2647.686523 1120.567993 C 2645.979492 1120.567993 2644.599609 1119.187988 2644.599609 1117.481079 C 2644.599609 1115.774048 2645.979492 1114.394043 2647.686523 1114.394043 C 2649.393555 1114.394043 2650.773682 1115.774048 2650.773682 1117.481079 C 2650.773682 1119.187988 2649.393555 1120.567993 2647.686523 1120.567993 Z"/>
        </g>
        <g id="Bold-M">
            <path id="path34" class="multicolor-0:systemBlueColor" stroke="none" d="M 2341.004639 1055.540039 C 2323.023682 1055.540039 2324.146484 1063.338013 2324.146484 1063.338013 L 2324.166504 1071.416016 L 2341.325684 1071.416016 L 2341.325684 1073.841064 L 2317.351563 1073.841064 C 2317.351563 1073.841064 2305.845703 1072.536011 2305.845703 1090.679077 C 2305.845703 1108.822021 2315.888672 1108.177979 2315.888672 1108.177979 L 2321.881592 1108.177979 L 2321.881592 1099.759033 C 2321.881592 1099.759033 2321.558594 1089.717041 2331.763672 1089.717041 C 2341.969727 1089.717041 2348.782715 1089.717041 2348.782715 1089.717041 C 2348.782715 1089.717041 2358.343506 1089.871094 2358.343506 1080.476074 C 2358.343506 1071.081055 2358.343506 1064.94104 2358.343506 1064.94104 C 2358.343506 1064.94104 2359.795654 1055.540039 2341.004639 1055.540039 Z M 2331.543701 1060.972046 C 2333.250488 1060.972046 2334.630615 1062.352051 2334.630615 1064.059082 C 2334.630615 1065.765991 2333.250488 1067.145996 2331.543701 1067.145996 C 2329.83667 1067.145996 2328.456543 1065.765991 2328.456543 1064.059082 C 2328.456543 1062.352051 2329.83667 1060.972046 2331.543701 1060.972046 Z"/>
            <path id="path35" class="multicolor-1:systemYellowColor" stroke="none" d="M 2341.515625 1126 C 2359.495605 1126 2358.373535 1118.202026 2358.373535 1118.202026 L 2358.353516 1110.124023 L 2341.19458 1110.124023 L 2341.19458 1107.699097 L 2365.168701 1107.699097 C 2365.168701 1107.699097 2376.674561 1109.004028 2376.674561 1090.861084 C 2376.674561 1072.718018 2366.631592 1073.362061 2366.631592 1073.362061 L 2360.638672 1073.362061 L 2360.638672 1081.781006 C 2360.638672 1081.781006 2360.96167 1091.822998 2350.756592 1091.822998 C 2340.550537 1091.822998 2333.737549 1091.822998 2333.737549 1091.822998 C 2333.737549 1091.822998 2324.176514 1091.669067 2324.176514 1101.064087 C 2324.176514 1110.458984 2324.176514 1116.598999 2324.176514 1116.598999 C 2324.176514 1116.598999 2322.724609 1126 2341.515625 1126 Z M 2350.976563 1120.567993 C 2349.269531 1120.567993 2347.889648 1119.187988 2347.889648 1117.481079 C 2347.889648 1115.774048 2349.269531 1114.394043 2350.976563 1114.394043 C 2352.683594 1114.394043 2354.063721 1115.774048 2354.063721 1117.481079 C 2354.063721 1119.187988 2352.683594 1120.567993 2350.976563 1120.567993 Z"/>
        </g>
        <g id="Semibold-M">
            <path id="path36" class="multicolor-0:systemBlueColor" stroke="none" d="M 2044.294556 1055.540039 C 2026.313599 1055.540039 2027.436646 1063.338013 2027.436646 1063.338013 L 2027.456665 1071.416016 L 2044.615601 1071.416016 L 2044.615601 1073.841064 L 2020.641602 1073.841064 C 2020.641602 1073.841064 2009.13562 1072.536011 2009.13562 1090.679077 C 2009.13562 1108.822021 2019.178589 1108.177979 2019.178589 1108.177979 L 2025.171631 1108.177979 L 2025.171631 1099.759033 C 2025.171631 1099.759033 2024.848633 1089.717041 2035.053589 1089.717041 C 2045.259644 1089.717041 2052.07251 1089.717041 2052.07251 1089.717041 C 2052.07251 1089.717041 2061.633545 1089.871094 2061.633545 1080.476074 C 2061.633545 1071.081055 2061.633545 1064.94104 2061.633545 1064.94104 C 2061.633545 1064.94104 2063.085693 1055.540039 2044.294556 1055.540039 Z M 2034.833618 1060.972046 C 2036.540649 1060.972046 2037.920654 1062.352051 2037.920654 1064.059082 C 2037.920654 1065.765991 2036.540649 1067.145996 2034.833618 1067.145996 C 2033.126587 1067.145996 2031.746582 1065.765991 2031.746582 1064.059082 C 2031.746582 1062.352051 2033.126587 1060.972046 2034.833618 1060.972046 Z"/>
            <path id="path37" class="multicolor-1:systemYellowColor" stroke="none" d="M 2044.805664 1126 C 2062.785645 1126 2061.663574 1118.202026 2061.663574 1118.202026 L 2061.643555 1110.124023 L 2044.484619 1110.124023 L 2044.484619 1107.699097 L 2068.458496 1107.699097 C 2068.458496 1107.699097 2079.9646 1109.004028 2079.9646 1090.861084 C 2079.9646 1072.718018 2069.921631 1073.362061 2069.921631 1073.362061 L 2063.928711 1073.362061 L 2063.928711 1081.781006 C 2063.928711 1081.781006 2064.251709 1091.822998 2054.046631 1091.822998 C 2043.840576 1091.822998 2037.027588 1091.822998 2037.027588 1091.822998 C 2037.027588 1091.822998 2027.466553 1091.669067 2027.466553 1101.064087 C 2027.466553 1110.458984 2027.466553 1116.598999 2027.466553 1116.598999 C 2027.466553 1116.598999 2026.014648 1126 2044.805664 1126 Z M 2054.266602 1120.567993 C 2052.55957 1120.567993 2051.179688 1119.187988 2051.179688 1117.481079 C 2051.179688 1115.774048 2052.55957 1114.394043 2054.266602 1114.394043 C 2055.973633 1114.394043 2057.353516 1115.774048 2057.353516 1117.481079 C 2057.353516 1119.187988 2055.973633 1120.567993 2054.266602 1120.567993 Z"/>
        </g>
        <g id="Medium-M">
            <path id="path38" class="multicolor-0:systemBlueColor" stroke="none" d="M 1747.584595 1055.540039 C 1729.603638 1055.540039 1730.726563 1063.338013 1730.726563 1063.338013 L 1730.746582 1071.416016 L 1747.90564 1071.416016 L 1747.90564 1073.841064 L 1723.931641 1073.841064 C 1723.931641 1073.841064 1712.425659 1072.536011 1712.425659 1090.679077 C 1712.425659 1108.822021 1722.468628 1108.177979 1722.468628 1108.177979 L 1728.461548 1108.177979 L 1728.461548 1099.759033 C 1728.461548 1099.759033 1728.13855 1089.717041 1738.343628 1089.717041 C 1748.549561 1089.717041 1755.362549 1089.717041 1755.362549 1089.717041 C 1755.362549 1089.717041 1764.923584 1089.871094 1764.923584 1080.476074 C 1764.923584 1071.081055 1764.923584 1064.94104 1764.923584 1064.94104 C 1764.923584 1064.94104 1766.37561 1055.540039 1747.584595 1055.540039 Z M 1738.123657 1060.972046 C 1739.830566 1060.972046 1741.210571 1062.352051 1741.210571 1064.059082 C 1741.210571 1065.765991 1739.830566 1067.145996 1738.123657 1067.145996 C 1736.416626 1067.145996 1735.036621 1065.765991 1735.036621 1064.059082 C 1735.036621 1062.352051 1736.416626 1060.972046 1738.123657 1060.972046 Z"/>
            <path id="path39" class="multicolor-1:systemYellowColor" stroke="none" d="M 1748.095581 1126 C 1766.075562 1126 1764.953613 1118.202026 1764.953613 1118.202026 L 1764.933594 1110.124023 L 1747.774658 1110.124023 L 1747.774658 1107.699097 L 1771.748657 1107.699097 C 1771.748657 1107.699097 1783.254639 1109.004028 1783.254639 1090.861084 C 1783.254639 1072.718018 1773.211548 1073.362061 1773.211548 1073.362061 L 1767.218628 1073.362061 L 1767.218628 1081.781006 C 1767.218628 1081.781006 1767.541626 1091.822998 1757.336548 1091.822998 C 1747.130615 1091.822998 1740.317627 1091.822998 1740.317627 1091.822998 C 1740.317627 1091.822998 1730.756592 1091.669067 1730.756592 1101.064087 C 1730.756592 1110.458984 1730.756592 1116.598999 1730.756592 1116.598999 C 1730.756592 1116.598999 1729.304565 1126 1748.095581 1126 Z M 1757.556641 1120.567993 C 1755.849609 1120.567993 1754.469604 1119.187988 1754.469604 1117.481079 C 1754.469604 1115.774048 1755.849609 1114.394043 1757.556641 1114.394043 C 1759.26355 1114.394043 1760.643555 1115.774048 1760.643555 1117.481079 C 1760.643555 1119.187988 1759.26355 1120.567993 1757.556641 1120.567993 Z"/>
        </g>
        <g id="Regular-M">
            <path id="path40" class="multicolor-0:systemBlueColor" stroke="none" d="M 1450.874634 1055.540039 C 1432.893555 1055.540039 1434.016602 1063.338013 1434.016602 1063.338013 L 1434.036621 1071.416016 L 1451.195557 1071.416016 L 1451.195557 1073.841064 L 1427.221558 1073.841064 C 1427.221558 1073.841064 1415.715576 1072.536011 1415.715576 1090.679077 C 1415.715576 1108.822021 1425.758667 1108.177979 1425.758667 1108.177979 L 1431.751587 1108.177979 L 1431.751587 1099.759033 C 1431.751587 1099.759033 1431.428589 1089.717041 1441.633545 1089.717041 C 1451.8396 1089.717041 1458.652588 1089.717041 1458.652588 1089.717041 C 1458.652588 1089.717041 1468.213623 1089.871094 1468.213623 1080.476074 C 1468.213623 1071.081055 1468.213623 1064.94104 1468.213623 1064.94104 C 1468.213623 1064.94104 1469.665649 1055.540039 1450.874634 1055.540039 Z M 1441.413574 1060.972046 C 1443.120605 1060.972046 1444.50061 1062.352051 1444.50061 1064.059082 C 1444.50061 1065.765991 1443.120605 1067.145996 1441.413574 1067.145996 C 1439.706665 1067.145996 1438.32666 1065.765991 1438.32666 1064.059082 C 1438.32666 1062.352051 1439.706665 1060.972046 1441.413574 1060.972046 Z"/>
            <path id="path41" class="multicolor-1:systemYellowColor" stroke="none" d="M 1451.38562 1126 C 1469.365601 1126 1468.243652 1118.202026 1468.243652 1118.202026 L 1468.223633 1110.124023 L 1451.064575 1110.124023 L 1451.064575 1107.699097 L 1475.038574 1107.699097 C 1475.038574 1107.699097 1486.544556 1109.004028 1486.544556 1090.861084 C 1486.544556 1072.718018 1476.501587 1073.362061 1476.501587 1073.362061 L 1470.508545 1073.362061 L 1470.508545 1081.781006 C 1470.508545 1081.781006 1470.831665 1091.822998 1460.626587 1091.822998 C 1450.420654 1091.822998 1443.607666 1091.822998 1443.607666 1091.822998 C 1443.607666 1091.822998 1434.046631 1091.669067 1434.046631 1101.064087 C 1434.046631 1110.458984 1434.046631 1116.598999 1434.046631 1116.598999 C 1434.046631 1116.598999 1432.594604 1126 1451.38562 1126 Z M 1460.846558 1120.567993 C 1459.139648 1120.567993 1457.759644 1119.187988 1457.759644 1117.481079 C 1457.759644 1115.774048 1459.139648 1114.394043 1460.846558 1114.394043 C 1462.553589 1114.394043 1463.933594 1115.774048 1463.933594 1117.481079 C 1463.933594 1119.187988 1462.553589 1120.567993 1460.846558 1120.567993 Z"/>
        </g>
        <g id="Light-M">
            <path id="path42" class="multicolor-0:systemBlueColor" stroke="none" d="M 1154.164551 1055.540039 C 1136.183594 1055.540039 1137.306641 1063.338013 1137.306641 1063.338013 L 1137.32666 1071.416016 L 1154.485596 1071.416016 L 1154.485596 1073.841064 L 1130.511597 1073.841064 C 1130.511597 1073.841064 1119.005615 1072.536011 1119.005615 1090.679077 C 1119.005615 1108.822021 1129.048584 1108.177979 1129.048584 1108.177979 L 1135.041626 1108.177979 L 1135.041626 1099.759033 C 1135.041626 1099.759033 1134.718628 1089.717041 1144.923584 1089.717041 C 1155.129639 1089.717041 1161.942627 1089.717041 1161.942627 1089.717041 C 1161.942627 1089.717041 1171.503662 1089.871094 1171.503662 1080.476074 C 1171.503662 1071.081055 1171.503662 1064.94104 1171.503662 1064.94104 C 1171.503662 1064.94104 1172.955566 1055.540039 1154.164551 1055.540039 Z M 1144.703613 1060.972046 C 1146.410645 1060.972046 1147.790649 1062.352051 1147.790649 1064.059082 C 1147.790649 1065.765991 1146.410645 1067.145996 1144.703613 1067.145996 C 1142.996582 1067.145996 1141.616577 1065.765991 1141.616577 1064.059082 C 1141.616577 1062.352051 1142.996582 1060.972046 1144.703613 1060.972046 Z"/>
            <path id="path43" class="multicolor-1:systemYellowColor" stroke="none" d="M 1154.675659 1126 C 1172.65564 1126 1171.533569 1118.202026 1171.533569 1118.202026 L 1171.51355 1110.124023 L 1154.354614 1110.124023 L 1154.354614 1107.699097 L 1178.328613 1107.699097 C 1178.328613 1107.699097 1189.834595 1109.004028 1189.834595 1090.861084 C 1189.834595 1072.718018 1179.791626 1073.362061 1179.791626 1073.362061 L 1173.798584 1073.362061 L 1173.798584 1081.781006 C 1173.798584 1081.781006 1174.121582 1091.822998 1163.916626 1091.822998 C 1153.710571 1091.822998 1146.897583 1091.822998 1146.897583 1091.822998 C 1146.897583 1091.822998 1137.336548 1091.669067 1137.336548 1101.064087 C 1137.336548 1110.458984 1137.336548 1116.598999 1137.336548 1116.598999 C 1137.336548 1116.598999 1135.884644 1126 1154.675659 1126 Z M 1164.136597 1120.567993 C 1162.429565 1120.567993 1161.049561 1119.187988 1161.049561 1117.481079 C 1161.049561 1115.774048 1162.429565 1114.394043 1164.136597 1114.394043 C 1165.843628 1114.394043 1167.223633 1115.774048 1167.223633 1117.481079 C 1167.223633 1119.187988 1165.843628 1120.567993 1164.136597 1120.567993 Z"/>
        </g>
        <g id="Thin-M">
            <path id="path44" class="multicolor-0:systemBlueColor" stroke="none" d="M 857.45459 1055.540039 C 839.473633 1055.540039 840.596619 1063.338013 840.596619 1063.338013 L 840.616577 1071.416016 L 857.775635 1071.416016 L 857.775635 1073.841064 L 833.801636 1073.841064 C 833.801636 1073.841064 822.295593 1072.536011 822.295593 1090.679077 C 822.295593 1108.822021 832.338623 1108.177979 832.338623 1108.177979 L 838.331604 1108.177979 L 838.331604 1099.759033 C 838.331604 1099.759033 838.008606 1089.717041 848.213623 1089.717041 C 858.419617 1089.717041 865.232605 1089.717041 865.232605 1089.717041 C 865.232605 1089.717041 874.793579 1089.871094 874.793579 1080.476074 C 874.793579 1071.081055 874.793579 1064.94104 874.793579 1064.94104 C 874.793579 1064.94104 876.245605 1055.540039 857.45459 1055.540039 Z M 847.993591 1060.972046 C 849.700623 1060.972046 851.080627 1062.352051 851.080627 1064.059082 C 851.080627 1065.765991 849.700623 1067.145996 847.993591 1067.145996 C 846.286621 1067.145996 844.906616 1065.765991 844.906616 1064.059082 C 844.906616 1062.352051 846.286621 1060.972046 847.993591 1060.972046 Z"/>
            <path id="path45" class="multicolor-1:systemYellowColor" stroke="none" d="M 857.965576 1126 C 875.945618 1126 874.823608 1118.202026 874.823608 1118.202026 L 874.803589 1110.124023 L 857.644592 1110.124023 L 857.644592 1107.699097 L 881.618591 1107.699097 C 881.618591 1107.699097 893.124634 1109.004028 893.124634 1090.861084 C 893.124634 1072.718018 883.081604 1073.362061 883.081604 1073.362061 L 877.088623 1073.362061 L 877.088623 1081.781006 C 877.088623 1081.781006 877.411621 1091.822998 867.206604 1091.822998 C 857.00061 1091.822998 850.187622 1091.822998 850.187622 1091.822998 C 850.187622 1091.822998 840.626587 1091.669067 840.626587 1101.064087 C 840.626587 1110.458984 840.626587 1116.598999 840.626587 1116.598999 C 840.626587 1116.598999 839.174622 1126 857.965576 1126 Z M 867.426636 1120.567993 C 865.719604 1120.567993 864.3396 1119.187988 864.3396 1117.481079 C 864.3396 1115.774048 865.719604 1114.394043 867.426636 1114.394043 C 869.133606 1114.394043 870.513611 1115.774048 870.513611 1117.481079 C 870.513611 1119.187988 869.133606 1120.567993 867.426636 1120.567993 Z"/>
        </g>
        <g id="Ultralight-M">
            <path id="path46" class="multicolor-0:systemBlueColor" stroke="none" d="M 560.744629 1055.540039 C 542.763611 1055.540039 543.886597 1063.338013 543.886597 1063.338013 L 543.906616 1071.416016 L 561.065613 1071.416016 L 561.065613 1073.841064 L 537.091614 1073.841064 C 537.091614 1073.841064 525.585632 1072.536011 525.585632 1090.679077 C 525.585632 1108.822021 535.628601 1108.177979 535.628601 1108.177979 L 541.621582 1108.177979 L 541.621582 1099.759033 C 541.621582 1099.759033 541.298584 1089.717041 551.503601 1089.717041 C 561.709595 1089.717041 568.522583 1089.717041 568.522583 1089.717041 C 568.522583 1089.717041 578.083618 1089.871094 578.083618 1080.476074 C 578.083618 1071.081055 578.083618 1064.94104 578.083618 1064.94104 C 578.083618 1064.94104 579.535583 1055.540039 560.744629 1055.540039 Z M 551.28363 1060.972046 C 552.990601 1060.972046 554.370605 1062.352051 554.370605 1064.059082 C 554.370605 1065.765991 552.990601 1067.145996 551.28363 1067.145996 C 549.576599 1067.145996 548.196594 1065.765991 548.196594 1064.059082 C 548.196594 1062.352051 549.576599 1060.972046 551.28363 1060.972046 Z"/>
            <path id="path47" class="multicolor-1:systemYellowColor" stroke="none" d="M 561.255615 1126 C 579.235596 1126 578.113586 1118.202026 578.113586 1118.202026 L 578.093628 1110.124023 L 560.934631 1110.124023 L 560.934631 1107.699097 L 584.90863 1107.699097 C 584.90863 1107.699097 596.414612 1109.004028 596.414612 1090.861084 C 596.414612 1072.718018 586.371582 1073.362061 586.371582 1073.362061 L 580.378601 1073.362061 L 580.378601 1081.781006 C 580.378601 1081.781006 580.701599 1091.822998 570.496582 1091.822998 C 560.290588 1091.822998 553.4776 1091.822998 553.4776 1091.822998 C 553.4776 1091.822998 543.916626 1091.669067 543.916626 1101.064087 C 543.916626 1110.458984 543.916626 1116.598999 543.916626 1116.598999 C 543.916626 1116.598999 542.4646 1126 561.255615 1126 Z M 570.716614 1120.567993 C 569.009583 1120.567993 567.629578 1119.187988 567.629578 1117.481079 C 567.629578 1115.774048 569.009583 1114.394043 570.716614 1114.394043 C 572.423584 1114.394043 573.803589 1115.774048 573.803589 1117.481079 C 573.803589 1119.187988 572.423584 1120.567993 570.716614 1120.567993 Z"/>
        </g>
        <g id="Black-S">
            <path id="path48" class="multicolor-0:systemBlueColor" stroke="none" d="M 2934.480469 633.184937 C 2920.401611 633.184937 2921.280518 639.289917 2921.280518 639.289917 L 2921.296631 645.615967 L 2934.731445 645.615967 L 2934.731445 647.514893 L 2915.959473 647.514893 C 2915.959473 647.514893 2906.950439 646.49292 2906.950439 660.698975 C 2906.950439 674.904907 2914.813477 674.401001 2914.813477 674.401001 L 2919.506592 674.401001 L 2919.506592 667.80896 C 2919.506592 667.80896 2919.253418 659.944946 2927.244629 659.944946 C 2935.235596 659.944946 2940.56958 659.944946 2940.56958 659.944946 C 2940.56958 659.944946 2948.056641 660.066895 2948.056641 652.709961 C 2948.056641 645.352905 2948.056641 640.545898 2948.056641 640.545898 C 2948.056641 640.545898 2949.193604 633.184937 2934.480469 633.184937 Z M 2927.071533 637.437988 C 2928.408447 637.437988 2929.488525 638.518921 2929.488525 639.855957 C 2929.488525 641.191895 2928.408447 642.272949 2927.071533 642.272949 C 2925.735596 642.272949 2924.654541 641.191895 2924.654541 639.855957 C 2924.654541 638.518921 2925.735596 637.437988 2927.071533 637.437988 Z"/>
            <path id="path49" class="multicolor-1:systemYellowColor" stroke="none" d="M 2934.879639 688.35498 C 2948.958496 688.35498 2948.07959 682.25 2948.07959 682.25 L 2948.063477 675.92395 L 2934.628418 675.92395 L 2934.628418 674.024902 L 2953.400635 674.024902 C 2953.400635 674.024902 2962.409424 675.046997 2962.409424 660.840942 C 2962.409424 646.635986 2954.546631 647.138916 2954.546631 647.138916 L 2949.853516 647.138916 L 2949.853516 653.730957 C 2949.853516 653.730957 2950.106445 661.594971 2942.115479 661.594971 C 2934.124512 661.594971 2928.790527 661.594971 2928.790527 661.594971 C 2928.790527 661.594971 2921.303467 661.473999 2921.303467 668.829956 C 2921.303467 676.18689 2921.303467 680.993896 2921.303467 680.993896 C 2921.303467 680.993896 2920.166504 688.35498 2934.879639 688.35498 Z M 2942.288574 684.101929 C 2940.951416 684.101929 2939.870605 683.020996 2939.870605 681.684937 C 2939.870605 680.3479 2940.951416 679.267944 2942.288574 679.267944 C 2943.624512 679.267944 2944.705566 680.3479 2944.705566 681.684937 C 2944.705566 683.020996 2943.624512 684.101929 2942.288574 684.101929 Z"/>
        </g>
        <g id="Heavy-S">
            <path id="path50" class="multicolor-0:systemBlueColor" stroke="none" d="M 2637.770508 633.184937 C 2623.69165 633.184937 2624.570557 639.289917 2624.570557 639.289917 L 2624.586426 645.615967 L 2638.021484 645.615967 L 2638.021484 647.514893 L 2619.249512 647.514893 C 2619.249512 647.514893 2610.240479 646.49292 2610.240479 660.698975 C 2610.240479 674.904907 2618.103516 674.401001 2618.103516 674.401001 L 2622.796631 674.401001 L 2622.796631 667.80896 C 2622.796631 667.80896 2622.543457 659.944946 2630.534424 659.944946 C 2638.525635 659.944946 2643.859619 659.944946 2643.859619 659.944946 C 2643.859619 659.944946 2651.346436 660.066895 2651.346436 652.709961 C 2651.346436 645.352905 2651.346436 640.545898 2651.346436 640.545898 C 2651.346436 640.545898 2652.483643 633.184937 2637.770508 633.184937 Z M 2630.361572 637.437988 C 2631.698486 637.437988 2632.778564 638.518921 2632.778564 639.855957 C 2632.778564 641.191895 2631.698486 642.272949 2630.361572 642.272949 C 2629.025635 642.272949 2627.94458 641.191895 2627.94458 639.855957 C 2627.94458 638.518921 2629.025635 637.437988 2630.361572 637.437988 Z"/>
            <path id="path51" class="multicolor-1:systemYellowColor" stroke="none" d="M 2638.169434 688.35498 C 2652.248535 688.35498 2651.369629 682.25 2651.369629 682.25 L 2651.353516 675.92395 L 2637.918457 675.92395 L 2637.918457 674.024902 L 2656.69043 674.024902 C 2656.69043 674.024902 2665.699463 675.046997 2665.699463 660.840942 C 2665.699463 646.635986 2657.836426 647.138916 2657.836426 647.138916 L 2653.143555 647.138916 L 2653.143555 653.730957 C 2653.143555 653.730957 2653.396484 661.594971 2645.405518 661.594971 C 2637.414551 661.594971 2632.080566 661.594971 2632.080566 661.594971 C 2632.080566 661.594971 2624.593506 661.473999 2624.593506 668.829956 C 2624.593506 676.18689 2624.593506 680.993896 2624.593506 680.993896 C 2624.593506 680.993896 2623.456543 688.35498 2638.169434 688.35498 Z M 2645.578613 684.101929 C 2644.241455 684.101929 2643.160645 683.020996 2643.160645 681.684937 C 2643.160645 680.3479 2644.241455 679.267944 2645.578613 679.267944 C 2646.914551 679.267944 2647.995605 680.3479 2647.995605 681.684937 C 2647.995605 683.020996 2646.914551 684.101929 2645.578613 684.101929 Z"/>
        </g>
        <g id="Bold-S">
            <path id="path52" class="multicolor-0:systemBlueColor" stroke="none" d="M 2341.060547 633.184937 C 2326.981445 633.184937 2327.860596 639.289917 2327.860596 639.289917 L 2327.876465 645.615967 L 2341.311523 645.615967 L 2341.311523 647.514893 L 2322.539551 647.514893 C 2322.539551 647.514893 2313.530518 646.49292 2313.530518 660.698975 C 2313.530518 674.904907 2321.393555 674.401001 2321.393555 674.401001 L 2326.086426 674.401001 L 2326.086426 667.80896 C 2326.086426 667.80896 2325.833496 659.944946 2333.824463 659.944946 C 2341.81543 659.944946 2347.149414 659.944946 2347.149414 659.944946 C 2347.149414 659.944946 2354.636475 660.066895 2354.636475 652.709961 C 2354.636475 645.352905 2354.636475 640.545898 2354.636475 640.545898 C 2354.636475 640.545898 2355.773438 633.184937 2341.060547 633.184937 Z M 2333.651611 637.437988 C 2334.988525 637.437988 2336.068604 638.518921 2336.068604 639.855957 C 2336.068604 641.191895 2334.988525 642.272949 2333.651611 642.272949 C 2332.31543 642.272949 2331.234619 641.191895 2331.234619 639.855957 C 2331.234619 638.518921 2332.31543 637.437988 2333.651611 637.437988 Z"/>
            <path id="path53" class="multicolor-1:systemYellowColor" stroke="none" d="M 2341.459473 688.35498 C 2355.538574 688.35498 2354.659424 682.25 2354.659424 682.25 L 2354.643555 675.92395 L 2341.208496 675.92395 L 2341.208496 674.024902 L 2359.980469 674.024902 C 2359.980469 674.024902 2368.989502 675.046997 2368.989502 660.840942 C 2368.989502 646.635986 2361.126465 647.138916 2361.126465 647.138916 L 2356.433594 647.138916 L 2356.433594 653.730957 C 2356.433594 653.730957 2356.686523 661.594971 2348.695557 661.594971 C 2340.70459 661.594971 2335.370605 661.594971 2335.370605 661.594971 C 2335.370605 661.594971 2327.883545 661.473999 2327.883545 668.829956 C 2327.883545 676.18689 2327.883545 680.993896 2327.883545 680.993896 C 2327.883545 680.993896 2326.746582 688.35498 2341.459473 688.35498 Z M 2348.868652 684.101929 C 2347.531494 684.101929 2346.450439 683.020996 2346.450439 681.684937 C 2346.450439 680.3479 2347.531494 679.267944 2348.868652 679.267944 C 2350.20459 679.267944 2351.285645 680.3479 2351.285645 681.684937 C 2351.285645 683.020996 2350.20459 684.101929 2348.868652 684.101929 Z"/>
        </g>
        <g id="Semibold-S">
            <path id="path54" class="multicolor-0:systemBlueColor" stroke="none" d="M 2044.350586 633.184937 C 2030.271484 633.184937 2031.150513 639.289917 2031.150513 639.289917 L 2031.166504 645.615967 L 2044.601563 645.615967 L 2044.601563 647.514893 L 2025.82959 647.514893 C 2025.82959 647.514893 2016.820557 646.49292 2016.820557 660.698975 C 2016.820557 674.904907 2024.683472 674.401001 2024.683472 674.401001 L 2029.376587 674.401001 L 2029.376587 667.80896 C 2029.376587 667.80896 2029.123535 659.944946 2037.114502 659.944946 C 2045.105469 659.944946 2050.439453 659.944946 2050.439453 659.944946 C 2050.439453 659.944946 2057.926514 660.066895 2057.926514 652.709961 C 2057.926514 645.352905 2057.926514 640.545898 2057.926514 640.545898 C 2057.926514 640.545898 2059.063477 633.184937 2044.350586 633.184937 Z M 2036.941528 637.437988 C 2038.278564 637.437988 2039.358521 638.518921 2039.358521 639.855957 C 2039.358521 641.191895 2038.278564 642.272949 2036.941528 642.272949 C 2035.605469 642.272949 2034.524536 641.191895 2034.524536 639.855957 C 2034.524536 638.518921 2035.605469 637.437988 2036.941528 637.437988 Z"/>
            <path id="path55" class="multicolor-1:systemYellowColor" stroke="none" d="M 2044.749512 688.35498 C 2058.828613 688.35498 2057.949463 682.25 2057.949463 682.25 L 2057.933594 675.92395 L 2044.498535 675.92395 L 2044.498535 674.024902 L 2063.270508 674.024902 C 2063.270508 674.024902 2072.279541 675.046997 2072.279541 660.840942 C 2072.279541 646.635986 2064.416504 647.138916 2064.416504 647.138916 L 2059.723633 647.138916 L 2059.723633 653.730957 C 2059.723633 653.730957 2059.976563 661.594971 2051.985596 661.594971 C 2043.994507 661.594971 2038.660522 661.594971 2038.660522 661.594971 C 2038.660522 661.594971 2031.173584 661.473999 2031.173584 668.829956 C 2031.173584 676.18689 2031.173584 680.993896 2031.173584 680.993896 C 2031.173584 680.993896 2030.036499 688.35498 2044.749512 688.35498 Z M 2052.158447 684.101929 C 2050.821533 684.101929 2049.740479 683.020996 2049.740479 681.684937 C 2049.740479 680.3479 2050.821533 679.267944 2052.158447 679.267944 C 2053.494629 679.267944 2054.575439 680.3479 2054.575439 681.684937 C 2054.575439 683.020996 2053.494629 684.101929 2052.158447 684.101929 Z"/>
        </g>
        <g id="Medium-S">
            <path id="path56" class="multicolor-0:systemBlueColor" stroke="none" d="M 1747.640503 633.184937 C 1733.561523 633.184937 1734.440552 639.289917 1734.440552 639.289917 L 1734.456543 645.615967 L 1747.891479 645.615967 L 1747.891479 647.514893 L 1729.119507 647.514893 C 1729.119507 647.514893 1720.110474 646.49292 1720.110474 660.698975 C 1720.110474 674.904907 1727.973511 674.401001 1727.973511 674.401001 L 1732.666504 674.401001 L 1732.666504 667.80896 C 1732.666504 667.80896 1732.413574 659.944946 1740.404541 659.944946 C 1748.395508 659.944946 1753.729492 659.944946 1753.729492 659.944946 C 1753.729492 659.944946 1761.216553 660.066895 1761.216553 652.709961 C 1761.216553 645.352905 1761.216553 640.545898 1761.216553 640.545898 C 1761.216553 640.545898 1762.353516 633.184937 1747.640503 633.184937 Z M 1740.231567 637.437988 C 1741.568481 637.437988 1742.64856 638.518921 1742.64856 639.855957 C 1742.64856 641.191895 1741.568481 642.272949 1740.231567 642.272949 C 1738.895508 642.272949 1737.814575 641.191895 1737.814575 639.855957 C 1737.814575 638.518921 1738.895508 637.437988 1740.231567 637.437988 Z"/>
            <path id="path57" class="multicolor-1:systemYellowColor" stroke="none" d="M 1748.039551 688.35498 C 1762.11853 688.35498 1761.239502 682.25 1761.239502 682.25 L 1761.223511 675.92395 L 1747.788574 675.92395 L 1747.788574 674.024902 L 1766.560547 674.024902 C 1766.560547 674.024902 1775.56958 675.046997 1775.56958 660.840942 C 1775.56958 646.635986 1767.706543 647.138916 1767.706543 647.138916 L 1763.01355 647.138916 L 1763.01355 653.730957 C 1763.01355 653.730957 1763.266479 661.594971 1755.275513 661.594971 C 1747.284546 661.594971 1741.950562 661.594971 1741.950562 661.594971 C 1741.950562 661.594971 1734.463501 661.473999 1734.463501 668.829956 C 1734.463501 676.18689 1734.463501 680.993896 1734.463501 680.993896 C 1734.463501 680.993896 1733.326538 688.35498 1748.039551 688.35498 Z M 1755.448486 684.101929 C 1754.111572 684.101929 1753.030518 683.020996 1753.030518 681.684937 C 1753.030518 680.3479 1754.111572 679.267944 1755.448486 679.267944 C 1756.784546 679.267944 1757.865479 680.3479 1757.865479 681.684937 C 1757.865479 683.020996 1756.784546 684.101929 1755.448486 684.101929 Z"/>
        </g>
        <g id="Regular-S">
            <path id="path58" class="multicolor-0:systemBlueColor" stroke="none" d="M 1450.930542 633.184937 C 1436.851563 633.184937 1437.730469 639.289917 1437.730469 639.289917 L 1437.746582 645.615967 L 1451.181519 645.615967 L 1451.181519 647.514893 L 1432.409546 647.514893 C 1432.409546 647.514893 1423.400513 646.49292 1423.400513 660.698975 C 1423.400513 674.904907 1431.26355 674.401001 1431.26355 674.401001 L 1435.956543 674.401001 L 1435.956543 667.80896 C 1435.956543 667.80896 1435.703491 659.944946 1443.69458 659.944946 C 1451.685547 659.944946 1457.019531 659.944946 1457.019531 659.944946 C 1457.019531 659.944946 1464.50647 660.066895 1464.50647 652.709961 C 1464.50647 645.352905 1464.50647 640.545898 1464.50647 640.545898 C 1464.50647 640.545898 1465.643555 633.184937 1450.930542 633.184937 Z M 1443.521484 637.437988 C 1444.858521 637.437988 1445.938477 638.518921 1445.938477 639.855957 C 1445.938477 641.191895 1444.858521 642.272949 1443.521484 642.272949 C 1442.185547 642.272949 1441.104492 641.191895 1441.104492 639.855957 C 1441.104492 638.518921 1442.185547 637.437988 1443.521484 637.437988 Z"/>
            <path id="path59" class="multicolor-1:systemYellowColor" stroke="none" d="M 1451.32959 688.35498 C 1465.408569 688.35498 1464.529541 682.25 1464.529541 682.25 L 1464.51355 675.92395 L 1451.078491 675.92395 L 1451.078491 674.024902 L 1469.850586 674.024902 C 1469.850586 674.024902 1478.859497 675.046997 1478.859497 660.840942 C 1478.859497 646.635986 1470.996582 647.138916 1470.996582 647.138916 L 1466.303589 647.138916 L 1466.303589 653.730957 C 1466.303589 653.730957 1466.556519 661.594971 1458.565552 661.594971 C 1450.574585 661.594971 1445.240479 661.594971 1445.240479 661.594971 C 1445.240479 661.594971 1437.75354 661.473999 1437.75354 668.829956 C 1437.75354 676.18689 1437.75354 680.993896 1437.75354 680.993896 C 1437.75354 680.993896 1436.616577 688.35498 1451.32959 688.35498 Z M 1458.738525 684.101929 C 1457.401489 684.101929 1456.320557 683.020996 1456.320557 681.684937 C 1456.320557 680.3479 1457.401489 679.267944 1458.738525 679.267944 C 1460.074585 679.267944 1461.155518 680.3479 1461.155518 681.684937 C 1461.155518 683.020996 1460.074585 684.101929 1458.738525 684.101929 Z"/>
        </g>
        <g id="Light-S">
            <path id="path60" class="multicolor-0:systemBlueColor" stroke="none" d="M 1154.220581 633.184937 C 1140.141479 633.184937 1141.020508 639.289917 1141.020508 639.289917 L 1141.036499 645.615967 L 1154.471558 645.615967 L 1154.471558 647.514893 L 1135.699585 647.514893 C 1135.699585 647.514893 1126.690552 646.49292 1126.690552 660.698975 C 1126.690552 674.904907 1134.553589 674.401001 1134.553589 674.401001 L 1139.246582 674.401001 L 1139.246582 667.80896 C 1139.246582 667.80896 1138.99353 659.944946 1146.984497 659.944946 C 1154.975586 659.944946 1160.30957 659.944946 1160.30957 659.944946 C 1160.30957 659.944946 1167.796509 660.066895 1167.796509 652.709961 C 1167.796509 645.352905 1167.796509 640.545898 1167.796509 640.545898 C 1167.796509 640.545898 1168.933472 633.184937 1154.220581 633.184937 Z M 1146.811523 637.437988 C 1148.14856 637.437988 1149.228516 638.518921 1149.228516 639.855957 C 1149.228516 641.191895 1148.14856 642.272949 1146.811523 642.272949 C 1145.475586 642.272949 1144.394531 641.191895 1144.394531 639.855957 C 1144.394531 638.518921 1145.475586 637.437988 1146.811523 637.437988 Z"/>
            <path id="path61" class="multicolor-1:systemYellowColor" stroke="none" d="M 1154.619507 688.35498 C 1168.698486 688.35498 1167.81958 682.25 1167.81958 682.25 L 1167.803589 675.92395 L 1154.36853 675.92395 L 1154.36853 674.024902 L 1173.140503 674.024902 C 1173.140503 674.024902 1182.149536 675.046997 1182.149536 660.840942 C 1182.149536 646.635986 1174.286499 647.138916 1174.286499 647.138916 L 1169.593506 647.138916 L 1169.593506 653.730957 C 1169.593506 653.730957 1169.846558 661.594971 1161.855591 661.594971 C 1153.864502 661.594971 1148.530518 661.594971 1148.530518 661.594971 C 1148.530518 661.594971 1141.043579 661.473999 1141.043579 668.829956 C 1141.043579 676.18689 1141.043579 680.993896 1141.043579 680.993896 C 1141.043579 680.993896 1139.906494 688.35498 1154.619507 688.35498 Z M 1162.028564 684.101929 C 1160.691528 684.101929 1159.610474 683.020996 1159.610474 681.684937 C 1159.610474 680.3479 1160.691528 679.267944 1162.028564 679.267944 C 1163.364502 679.267944 1164.445557 680.3479 1164.445557 681.684937 C 1164.445557 683.020996 1163.364502 684.101929 1162.028564 684.101929 Z"/>
        </g>
        <g id="Thin-S">
            <path id="path62" class="multicolor-0:systemBlueColor" stroke="none" d="M 857.510559 633.184937 C 843.431519 633.184937 844.310547 639.289917 844.310547 639.289917 L 844.326538 645.615967 L 857.761536 645.615967 L 857.761536 647.514893 L 838.989502 647.514893 C 838.989502 647.514893 829.98053 646.49292 829.98053 660.698975 C 829.98053 674.904907 837.843506 674.401001 837.843506 674.401001 L 842.536499 674.401001 L 842.536499 667.80896 C 842.536499 667.80896 842.283508 659.944946 850.274536 659.944946 C 858.265503 659.944946 863.599548 659.944946 863.599548 659.944946 C 863.599548 659.944946 871.086548 660.066895 871.086548 652.709961 C 871.086548 645.352905 871.086548 640.545898 871.086548 640.545898 C 871.086548 640.545898 872.223511 633.184937 857.510559 633.184937 Z M 850.101501 637.437988 C 851.438538 637.437988 852.518555 638.518921 852.518555 639.855957 C 852.518555 641.191895 851.438538 642.272949 850.101501 642.272949 C 848.765503 642.272949 847.684509 641.191895 847.684509 639.855957 C 847.684509 638.518921 848.765503 637.437988 850.101501 637.437988 Z"/>
            <path id="path63" class="multicolor-1:systemYellowColor" stroke="none" d="M 857.909546 688.35498 C 871.988525 688.35498 871.109558 682.25 871.109558 682.25 L 871.093506 675.92395 L 857.658508 675.92395 L 857.658508 674.024902 L 876.430542 674.024902 C 876.430542 674.024902 885.439514 675.046997 885.439514 660.840942 C 885.439514 646.635986 877.576538 647.138916 877.576538 647.138916 L 872.883545 647.138916 L 872.883545 653.730957 C 872.883545 653.730957 873.136536 661.594971 865.145508 661.594971 C 857.154541 661.594971 851.820557 661.594971 851.820557 661.594971 C 851.820557 661.594971 844.333557 661.473999 844.333557 668.829956 C 844.333557 676.18689 844.333557 680.993896 844.333557 680.993896 C 844.333557 680.993896 843.196533 688.35498 857.909546 688.35498 Z M 865.318542 684.101929 C 863.981506 684.101929 862.900513 683.020996 862.900513 681.684937 C 862.900513 680.3479 863.981506 679.267944 865.318542 679.267944 C 866.654541 679.267944 867.735535 680.3479 867.735535 681.684937 C 867.735535 683.020996 866.654541 684.101929 865.318542 684.101929 Z"/>
        </g>
        <g id="Ultralight-S">
            <path id="path64" class="multicolor-0:systemBlueColor" stroke="none" d="M 560.800537 633.184937 C 546.721558 633.184937 547.600525 639.289917 547.600525 639.289917 L 547.616516 645.615967 L 561.051514 645.615967 L 561.051514 647.514893 L 542.279541 647.514893 C 542.279541 647.514893 533.270508 646.49292 533.270508 660.698975 C 533.270508 674.904907 541.133545 674.401001 541.133545 674.401001 L 545.826538 674.401001 L 545.826538 667.80896 C 545.826538 667.80896 545.573547 659.944946 553.564514 659.944946 C 561.555542 659.944946 566.889526 659.944946 566.889526 659.944946 C 566.889526 659.944946 574.376526 660.066895 574.376526 652.709961 C 574.376526 645.352905 574.376526 640.545898 574.376526 640.545898 C 574.376526 640.545898 575.51355 633.184937 560.800537 633.184937 Z M 553.391541 637.437988 C 554.728516 637.437988 555.808533 638.518921 555.808533 639.855957 C 555.808533 641.191895 554.728516 642.272949 553.391541 642.272949 C 552.055542 642.272949 550.974548 641.191895 550.974548 639.855957 C 550.974548 638.518921 552.055542 637.437988 553.391541 637.437988 Z"/>
            <path id="path65" class="multicolor-1:systemYellowColor" stroke="none" d="M 561.199524 688.35498 C 575.278503 688.35498 574.399536 682.25 574.399536 682.25 L 574.383545 675.92395 L 560.948547 675.92395 L 560.948547 674.024902 L 579.72052 674.024902 C 579.72052 674.024902 588.729553 675.046997 588.729553 660.840942 C 588.729553 646.635986 580.866516 647.138916 580.866516 647.138916 L 576.173523 647.138916 L 576.173523 653.730957 C 576.173523 653.730957 576.426514 661.594971 568.435547 661.594971 C 560.444519 661.594971 555.110535 661.594971 555.110535 661.594971 C 555.110535 661.594971 547.623535 661.473999 547.623535 668.829956 C 547.623535 676.18689 547.623535 680.993896 547.623535 680.993896 C 547.623535 680.993896 546.486511 688.35498 561.199524 688.35498 Z M 568.608521 684.101929 C 567.271545 684.101929 566.190552 683.020996 566.190552 681.684937 C 566.190552 680.3479 567.271545 679.267944 568.608521 679.267944 C 569.944519 679.267944 571.025513 680.3479 571.025513 681.684937 C 571.025513 683.020996 569.944519 684.101929 568.608521 684.101929 Z"/>
        </g>
    </g>
</svg>
